<?xml version="1.0" encoding="UTF-8"?>
<!DOCTYPE svg PUBLIC "-//W3C//DTD SVG 1.1//EN" "http://www.w3.org/Graphics/SVG/1.1/DTD/svg11.dtd">
<svg version="1.1" xmlns="http://www.w3.org/2000/svg" xmlns:xlink="http://www.w3.org/1999/xlink" x="0" y="0" width="24" height="24" viewBox="0, 0, 24, 24">
  <g id="Layer_1">
    <g>
      <path d="M17.002,10.688 L17.002,9.409 L16.997,9.409 C16.945,8.483 14.698,7.71 11.668,7.487 C11.658,8.089 11.431,8.495 11.332,8.672 C13.399,8.849 14.904,9.393 14.904,10.036 C14.904,10.823 12.655,11.461 9.883,11.461 C7.11,11.461 4.862,10.823 4.862,10.036 C4.862,9.286 6.907,8.672 9.502,8.616 C9.506,8.604 9.529,7.807 9.021,7.437 C5.534,7.557 2.825,8.391 2.769,9.409 L2.763,9.409 L2.763,16.529 C2.763,20.461 5.95,23.648 9.883,23.648 C12.904,23.648 15.478,21.764 16.512,19.109 C16.675,19.129 16.834,19.159 17.002,19.159 C19.337,19.159 21.237,17.259 21.237,14.923 C21.237,12.588 19.337,10.688 17.002,10.688 z M17.002,16.797 C16.997,16.797 16.993,16.796 16.988,16.796 C16.992,16.707 17.002,16.618 17.002,16.529 L17.002,13.05 C18.035,13.05 18.876,13.89 18.876,14.923 C18.876,15.956 18.035,16.797 17.002,16.797 z" fill="#000000"/>
      <path d="M10.157,7.708 C10.157,8.643 9.724,9.147 9.635,9.301 C9.601,9.361 9.544,9.482 9.655,9.586 C9.737,9.662 9.849,9.658 9.929,9.581 C10.209,9.308 10.896,8.633 10.896,7.535 C10.896,5.802 8.595,5.063 8.595,3.685 C8.595,1.914 10.741,2.801 10.805,2.816 C11.443,2.963 12.08,2.567 12.228,1.929 C12.377,1.292 12.055,0.867 11.341,0.506 C10.526,0.094 6.848,0.315 7.054,3.591 C7.206,5.994 10.157,6.19 10.157,7.708 z" fill="#000000"/>
    </g>
  </g>
</svg>
