<?xml version="1.0" encoding="iso-8859-1"?>
<!-- Generator: Adobe Illustrator 17.1.0, SVG Export Plug-In . SVG Version: 6.00 Build 0)  -->
<!DOCTYPE svg PUBLIC "-//W3C//DTD SVG 1.1//EN" "http://www.w3.org/Graphics/SVG/1.1/DTD/svg11.dtd">
<svg version="1.1" id="Capa_1" xmlns="http://www.w3.org/2000/svg" xmlns:xlink="http://www.w3.org/1999/xlink" x="0px" y="0px"
	 viewBox="0 0 295.952 295.952" style="enable-background:new 0 0 295.952 295.952;" xml:space="preserve">
<g>
	<path style="fill:#FFFFFF;" d="M232.748,31.476H16.063c0.285,18.11,1.542,33.885,3.469,48h209.748
		C231.205,65.361,232.463,49.586,232.748,31.476z"/>
	<path style="fill:#A56905;" d="M226.703,95.476H22.107c3.173,16.953,7.313,31.459,11.754,45h181.087
		C219.391,126.935,223.53,112.429,226.703,95.476z"/>
	<path d="M295.939,87.288c-0.103-4.344-3.653-7.812-7.998-7.812h-42.565c2.14-16.329,3.434-34.743,3.434-56c0-4.418-3.582-8-8-8H8
		c-4.418,0-8,3.582-8,8c0,69.814,13.903,109.107,26.171,143.775c10.769,30.436,20.941,59.184,20.941,105.225c0,4.418,3.582,8,8,8
		h138.584c4.418,0,8-3.582,8-8c0-21.955,2.316-39.973,5.904-56.121c37.212-4.782,64.248-28.466,78.317-68.699
		C296.518,117.341,295.968,88.5,295.939,87.288z M16.063,31.476h216.686c-0.285,18.11-1.543,33.885-3.469,48H19.531
		C17.604,65.361,16.348,49.586,16.063,31.476z M22.107,95.476h204.596c-3.173,16.953-7.313,31.459-11.755,45H33.861
		C29.42,126.935,25.28,112.429,22.107,95.476z M185.794,264.476H63.015c-1.09-44.144-17.156-92.5-23.681-108h170.142
		C203.108,173.976,186.884,220.333,185.794,264.476z M270.68,142.758c-11.271,31.923-31.002,50.937-58.721,56.657
		c3.214-11.057,6.909-21.508,10.68-32.164c7.26-20.516,15.091-42.654,20.276-71.775h36.82
		C279.188,105.575,277.273,124.082,270.68,142.758z"/>
	<path style="fill:#603D13;" d="M63.015,264.476h122.779c1.09-44.144,17.314-90.5,23.682-108H39.334
		C45.858,171.976,61.925,220.333,63.015,264.476z"/>
</g>
<g>
</g>
<g>
</g>
<g>
</g>
<g>
</g>
<g>
</g>
<g>
</g>
<g>
</g>
<g>
</g>
<g>
</g>
<g>
</g>
<g>
</g>
<g>
</g>
<g>
</g>
<g>
</g>
<g>
</g>
</svg>
